#!OML:ASF E:\id_vita\Project 1\Capture day 1\Session 1\Male1.ASF
:FULLY-SPECIFIED
:DEGREES
1583
root 29.806 16.3375 0.848221 -1.4239 137.691 -14.6502
lowerback 12.2644 -2.39928 5.15161
upperback 5.01408 -1.9488 3.85969
thorax -1.66199 -0.724821 1.38204
lowerneck -5.44429 9.52738 14.9254
upperneck 18.255 13.881 -11.3513
head 8.39322 6.88008 -4.81649
rclavicle 5.56597e-014 5.725e-014
rhumerus -23.9789 -11.8151 -70.5096
rradius 57.1015
rwrist 12.5565
rhand -27.6961 41.0746
rfingers 7.12502
rthumb -1.09243 11.0976
lclavicle 5.56597e-014 5.725e-014
lhumerus -7.74647 -18.7627 81.9483
lradius 38.7665
lwrist 8.40913
lhand -8.35235 42.2885
lfingers 7.12502
lthumb 17.5698 71.5146
rfemur -39.3799 -19.674 9.73706
rtibia 43.0945
rfoot -14.1432 -18.9507
rtoes 22.8614
lfemur -6.43849 -5.07587 -10.9352
ltibia 29.3557
lfoot 0.547651 -10.8069
ltoes 42.3388
1584
root 29.778 16.3494 0.858157 -1.3928 138.293 -14.5076
lowerback 12.2028 -2.16907 5.42278
upperback 4.98265 -1.62372 3.78893
thorax -1.66622 -0.56183 1.1105
lowerneck -4.73468 9.95859 15.2636
upperneck 17.4998 14.4569 -11.4343
head 8.13207 7.18496 -4.85065
rclavicle -9.54166e-014 4.13472e-014
rhumerus -24.2372 -12.2989 -70.4798
rradius 57.1216
rwrist 12.6043
rhand -28.0273 41.1609
rfingers 7.12502
rthumb -1.41227 11.1858
lclavicle -9.54166e-014 4.13472e-014
lhumerus -7.9836 -18.8813 81.7876
lradius 38.3636
lwrist 8.15001
lhand -8.95715 41.8558
lfingers 7.12502
lthumb 16.9877 71.133
rfemur -39.0113 -20.0693 9.63526
rtibia 42.7257
rfoot -13.968 -19.0791
rtoes 22.4398
lfemur -6.42393 -5.36963 -10.8905
ltibia 29.0325
lfoot 0.296061 -10.8831
ltoes 42.6632
1585
root 29.7492 16.363 0.866496 -1.36086 138.831 -14.4583
lowerback 12.0478 -1.89097 5.6086
upperback 4.95569 -1.25837 3.70788
thorax -1.60835 -0.380519 0.868571
lowerneck -4.24991 10.3489 14.987
upperneck 16.8916 14.9009 -10.8892
head 7.84553 7.42418 -4.5914
rclavicle 9.54166e-014 1.01778e-013
rhumerus -24.4859 -12.8959 -70.4005
rradius 57.2965
rwrist 12.7253
rhand -27.5816 40.6437
rfingers 7.12502
rthumb -0.981856 10.6662
lclavicle 9.54166e-014 1.01778e-013
lhumerus -8.20548 -18.9987 81.617
lradius 37.9727
lwrist 7.98203
lhand -9.29001 41.7573
lfingers 7.12502
lthumb 16.6673 71.0617
rfemur -38.7389 -20.3555 9.47095
rtibia 42.3686
rfoot -14.3023 -19.2432
rtoes 24.2466
lfemur -6.44182 -5.51068 -10.9329
ltibia 28.6759
lfoot 0.0702132 -10.9562
ltoes 42.3544
1586
root 29.716 16.3778 0.874912 -1.38779 139.387 -14.4441
lowerback 12.0126 -1.65395 5.7836
upperback 4.89927 -0.941147 3.56982
thorax -1.6447 -0.226119 0.583781
lowerneck -4.09231 10.945 16.456
upperneck 16.9625 15.8572 -12.0602
head 8.20397 7.89067 -5.07542
rclavicle -1.59028e-015 7.63333e-014
rhumerus -24.7737 -13.3719 -70.3965
rradius 57.4344
rwrist 12.6464
rhand -27.8482 40.9091
rfingers 7.12502
rthumb -1.23928 10.9329
lclavicle -1.59028e-015 7.63333e-014
lhumerus -8.52168 -18.9974 81.361
lradius 37.6864
lwrist 7.85774
lhand -9.50869 42.0052
lfingers 7.12502
lthumb 16.4567 71.3272
rfemur -38.4595 -20.6567 9.24189
rtibia 42.0772
rfoot -14.3572 -19.447
rtoes 24.2506
lfemur -6.38822 -5.67031 -11.0484
ltibia 28.2901
lfoot -0.129968 -10.8165
ltoes 41.5494
1587
root 29.6799 16.3808 0.882123 -1.42611 139.885 -14.2372
lowerback 12.1641 -1.4739 6.04789
upperback 4.87163 -0.658031 3.52198
thorax -1.74979 -0.0842389 0.350632
lowerneck -3.66222 11.3358 16.5086
upperneck 16.6783 16.417 -12.0013
head 8.1205 8.17645 -5.00572
rclavicle -2.54444e-014 1.17681e-013
rhumerus -24.9961 -13.5277 -70.3919
rradius 57.4578
rwrist 12.4876
rhand -27.9013 40.9313
rfingers 7.12502
rthumb -1.2906 10.9554
lclavicle -2.54444e-014 1.17681e-013
lhumerus -8.82625 -18.4196 81.2312
lradius 37.2998
lwrist 7.27295
lhand -9.58781 42.0544
lfingers 7.12502
lthumb 16.3805 71.3827
rfemur -38.0824 -21.0084 9.152
rtibia 41.8393
rfoot -14.1837 -19.5299
rtoes 23.7318
lfemur -6.1303 -5.84306 -11.0123
ltibia 27.9185
lfoot -0.178357 -10.4839
ltoes 42.2398
1588
root 29.6436 16.3711 0.890188 -1.37303 140.432 -14.0507
lowerback 12.1616 -1.16792 6.46729
upperback 4.85606 -0.211403 3.42471
thorax -1.74824 0.140811 -0.0454983
lowerneck -3.66886 11.7787 17.1566
upperneck 16.7871 17.0524 -12.3064
head 8.34697 8.49154 -5.10418
rclavicle -2.70347e-014 2.54444e-014
rhumerus -25.3733 -14.0617 -70.247
rradius 57.5952
rwrist 12.2858
rhand -28.1853 40.9046
rfingers 7.12502
rthumb -1.56484 10.9306
lclavicle -2.70347e-014 2.54444e-014
lhumerus -8.91426 -18.3767 81.15
lradius 36.85
lwrist 6.74301
lhand -9.68444 42.1255
lfingers 7.12502
lthumb 16.2875 71.4615
rfemur -37.8469 -21.425 9.06466
rtibia 41.5965
rfoot -13.9821 -19.5217
rtoes 24.0991
lfemur -5.99668 -6.02021 -10.9506
ltibia 27.6103
lfoot -0.961796 -10.6483
ltoes 43.0322
1589
root 29.6079 16.3727 0.901634 -1.33179 141.121 -13.9912
lowerback 12.0628 -1.01053 6.59061
upperback 4.80659 -0.00602437 3.34831
thorax -1.73603 0.240731 -0.222181
lowerneck -3.08004 12.0886 17.5302
upperneck 16.0353 17.5239 -12.7418
head 8.14605 8.72715 -5.26992
rclavicle 9.22361e-014 6.04305e-014
rhumerus -25.5673 -14.1105 -70.2423
rradius 57.6703
rwrist 11.9575
rhand -28.3427 40.7619
rfingers 7.12502
rthumb -1.71687 10.789
lclavicle 9.22361e-014 6.04305e-014
lhumerus -9.23538 -18.2842 80.8759
lradius 36.6331
lwrist 6.59282
lhand -9.96766 42.551
lfingers 7.12502
lthumb 16.0148 71.9091
rfemur -37.5628 -21.7971 8.83237
rtibia 41.2545
rfoot -13.8243 -19.6612
rtoes 23.8983
lfemur -6.07409 -6.173 -11.0067
ltibia 27.4088
lfoot -3.42388 -11.6471
ltoes 40.2188
1590
root 29.5647 16.3873 0.911149 -1.1072 141.812 -13.5939
lowerback 12.0068 -1.19339 6.64775
upperback 4.8181 -0.234493 3.41389
thorax -1.70526 0.132896 -0.155231
lowerneck -2.4725 12.669 18.0861
upperneck 15.5298 18.4343 -13.3488
head 8.13896 9.17259 -5.44828
rclavicle -1.59028e-015 -1.27222e-014
rhumerus -25.2273 -13.2546 -70.7119
rradius 57.5992
rwrist 11.829
rhand -28.2787 40.4455
rfingers 7.12502
rthumb -1.65512 10.4722
lclavicle -1.59028e-015 -1.27222e-014
lhumerus -9.6464 -17.144 80.2474
lradius 36.3953
lwrist 6.50013
lhand -10.2521 43.1823
lfingers 7.12502
lthumb 15.7409 72.5622
rfemur -37.1939 -22.1653 8.90897
rtibia 40.8755
rfoot -13.572 -20.0313
rtoes 23.0207
lfemur -6.18317 -6.20675 -10.8172
ltibia 27.2082
lfoot -4.35149 -11.4855
ltoes 39.7992
1591
root 29.5114 16.4033 0.912649 -0.585734 142.447 -12.6365
lowerback 12.0715 -1.02751 7.91494
upperback 4.75917 0.152183 3.41174
thorax -1.77405 0.339137 -0.913306
lowerneck -2.48006 12.8287 18.0612
upperneck 15.3973 18.6722 -13.4773
head 8.14756 9.27765 -5.44862
rclavicle -1.59028e-014 0
rhumerus -25.6291 -13.7649 -70.5785
rradius 57.7314
rwrist 11.9023
rhand -28.3078 40.2648
rfingers 7.12502
rthumb -1.68315 10.2917
lclavicle -1.59028e-014 0
lhumerus -9.66709 -17.1863 80.0687
lradius 35.9808
lwrist 6.34097
lhand -10.4058 43.562
lfingers 7.12502
lthumb 15.5929 72.9535
rfemur -36.7545 -22.6183 9.47075
rtibia 40.3923
rfoot -13.2898 -20.2731
rtoes 23.2054
lfemur -6.2335 -6.16379 -10.1693
ltibia 27.0156
lfoot -3.71839 -11.1299
ltoes 40.313
1592
root 29.4871 16.4086 0.92477 -0.648065 143.078 -13.3814
lowerback 11.5955 -0.621678 7.37626
upperback 4.54295 0.520591 3.04476
thorax -1.71628 0.491953 -1.0453
lowerneck -2.27324 12.9874 18.3403
upperneck 15.1641 18.8684 -13.4475
head 8.09342 9.39359 -5.4602
rclavicle -4.77083e-015 -3.49861e-014
rhumerus -26.1483 -14.2905 -70.6195
rradius 57.8542
rwrist 11.8316
rhand -28.3227 40.3299
rfingers 7.12502
rthumb -1.69755 10.3569
lclavicle -4.77083e-015 -3.49861e-014
lhumerus -9.99014 -17.3808 79.6819
lradius 35.8772
lwrist 6.23119
lhand -10.4612 43.8855
lfingers 7.12502
lthumb 15.5395 73.2811
rfemur -36.8967 -22.8858 8.67237
rtibia 39.9538
rfoot -13.1624 -20.4728
rtoes 24.2149
lfemur -6.69196 -6.19914 -10.9219
ltibia 26.7548
lfoot -3.03797 -9.96664
ltoes 43.8144
1593
root 29.437 16.4216 0.933122 -0.531771 143.741 -13.0468
lowerback 11.6834 -0.513854 7.81185
upperback 4.48321 0.719132 2.94572
thorax -1.80378 0.589778 -1.41711
lowerneck -2.17828 13.3029 18.3738
upperneck 14.9995 19.2455 -13.2145
head 8.06636 9.58564 -5.3324
rclavicle -3.89618e-014 1.52667e-013
rhumerus -26.2911 -14.2815 -70.6541
rradius 57.8677
rwrist 11.5298
rhand -28.2925 40.4761
rfingers 7.12502
rthumb -1.6684 10.5028
lclavicle -3.89618e-014 1.52667e-013
lhumerus -10.481 -17.4862 79.1175
lradius 35.9561
lwrist 6.49483
lhand -10.5928 44.227
lfingers 7.12502
lthumb 15.4128 73.6324
rfemur -36.4415 -23.1622 8.61414
rtibia 39.488
rfoot -12.8735 -20.676
rtoes 23.5878
lfemur -6.63427 -6.19862 -10.8082
ltibia 26.4449
lfoot -4.78261 -10.438
ltoes 40.6148
